<?xml version="1.0"?>
<!DOCTYPE svg PUBLIC "-//W3C//DTD SVG 1.1//EN" "http://www.w3.org/Graphics/SVG/1.1/DTD/svg11.dtd">
<svg version="1.1" id="Capa_1" xmlns="http://www.w3.org/2000/svg" xmlns:xlink="http://www.w3.org/1999/xlink" x="0px" y="0px"
	 viewBox="0 0 600 600" style="enable-background:new 0 0 455.896 455.896;" xml:space="preserve">
<g>
    <path d="M250.596,227.287l25.235-25.243c6.221-6.221,6.221-16.307,0-22.519c-6.222-6.222-16.3-6.222-22.521,0l-25.235,25.241   l-25.235-25.241c-6.221-6.222-16.299-6.222-22.519,0c-6.221,6.213-6.221,16.299,0,22.519l25.235,25.243l-25.235,25.243   c-6.221,6.221-6.221,16.307,0,22.519c3.11,3.11,7.186,4.666,11.26,4.666c4.075,0,8.149-1.556,11.26-4.666l25.235-25.241   l25.235,25.241c3.11,3.11,7.186,4.666,11.26,4.666c4.076,0,8.149-1.556,11.261-4.666c6.221-6.213,6.221-16.299,0-22.519"/>
    <path d="L250.596,227.287z"/>
</g>
</svg>
